<svg width="20" height="20" viewBox="0 0 20 20" fill="none" xmlns="http://www.w3.org/2000/svg">
<path d="M3.44211 2.65789H2.68632L2.98194 3.35347L5.66615 9.66925L5.79553 9.97368H6.12632H14.7368C15.2497 9.97368 15.7 9.72457 15.9789 9.35263L19.134 5.14583C19.1345 5.14517 19.135 5.14452 19.1355 5.14386C19.3401 4.87547 19.4474 4.54775 19.4474 4.21053C19.4474 3.79874 19.2838 3.40383 18.9926 3.11265C18.7014 2.82148 18.3065 2.65789 17.8947 2.65789H3.44211ZM6.17895 10.0263H5.86815L5.73059 10.305L4.92006 11.9471L4.89394 12L4.88085 12.0576L4.77559 12.5208L4.76316 12.5755V12.6316C4.76316 13.0434 4.92674 13.4383 5.21791 13.7295C5.50909 14.0206 5.90401 14.1842 6.31579 14.1842H17.3947V14.2368H6.31579C5.89005 14.2368 5.48174 14.0677 5.1807 13.7667C4.87965 13.4656 4.71053 13.0573 4.71053 12.6316V12.6311C4.71029 12.3588 4.77934 12.0909 4.91118 11.8526L4.91723 11.8417L4.92272 11.8305L5.68061 10.2831L5.78101 10.0781L5.6919 9.86795L1.87085 0.857426L1.74159 0.552632H1.41053H0.5V0.5H1.77448L2.53983 2.30083L2.66922 2.60526H3H17.8947C18.3205 2.60526 18.7288 2.77439 19.0298 3.07543C19.3309 3.37648 19.5 3.78478 19.5 4.21053C19.5 4.61452 19.3655 4.94559 19.1404 5.21899L19.1329 5.22799L19.1259 5.23734L16.0628 9.33207L16.0626 9.33196L16.0547 9.34324C15.7649 9.75371 15.2825 10.0263 14.7368 10.0263H6.17895ZM15.7895 16.2895C16.2152 16.2895 16.6235 16.4586 16.9246 16.7596C17.2256 17.0607 17.3947 17.469 17.3947 17.8947C17.3947 18.3205 17.2256 18.7288 16.9246 19.0298C16.6235 19.3309 16.2152 19.5 15.7895 19.5C15.3637 19.5 14.9554 19.3309 14.6544 19.0298C14.3533 18.7288 14.1842 18.3205 14.1842 17.8947C14.1842 17.469 14.3533 17.0607 14.6544 16.7596C14.9554 16.4586 15.3637 16.2895 15.7895 16.2895ZM15.7895 16.3421C15.3777 16.3421 14.9828 16.5057 14.6916 16.7969C14.4004 17.088 14.2368 17.483 14.2368 17.8947C14.2368 18.3065 14.4004 18.7014 14.6916 18.9926C14.9828 19.2838 15.3777 19.4474 15.7895 19.4474C16.2013 19.4474 16.5962 19.2838 16.8874 18.9926C17.1785 18.7014 17.3421 18.3065 17.3421 17.8947C17.3421 17.483 17.1785 17.088 16.8874 16.7969C16.5962 16.5057 16.2013 16.3421 15.7895 16.3421ZM6.31579 16.2895C6.74153 16.2895 7.14984 16.4586 7.45088 16.7596C7.75193 17.0607 7.92105 17.469 7.92105 17.8947C7.92105 18.3205 7.75193 18.7288 7.45088 19.0298C7.14984 19.3309 6.74153 19.5 6.31579 19.5C5.89005 19.5 5.48174 19.3309 5.1807 19.0298C4.87965 18.7288 4.71053 18.3205 4.71053 17.8947C4.71053 17.469 4.87965 17.0607 5.1807 16.7596C5.48174 16.4586 5.89005 16.2895 6.31579 16.2895ZM6.31579 16.3421C5.90401 16.3421 5.50909 16.5057 5.21791 16.7969C4.92674 17.088 4.76316 17.483 4.76316 17.8947C4.76316 18.3065 4.92674 18.7014 5.21791 18.9926C5.50909 19.2838 5.90401 19.4474 6.31579 19.4474C6.72757 19.4474 7.12249 19.2838 7.41367 18.9926C7.70484 18.7014 7.86842 18.3065 7.86842 17.8947C7.86842 17.483 7.70484 17.088 7.41367 16.7969C7.12249 16.5057 6.72757 16.3421 6.31579 16.3421Z" fill="#282828" stroke="#282828"/>
</svg>
