<svg width="755" height="787" viewBox="0 0 755 787" fill="none" xmlns="http://www.w3.org/2000/svg">
<path d="M641.453 436.063C641.453 436.063 657.57 573.707 541.729 666.528C506.886 694.446 450.5 701 412.001 697.488C373.501 693.977 274.185 657.993 240.915 659.691C177.164 662.945 159.6 688.31 159.6 688.31C159.6 688.31 166.704 662.006 204.459 630.857C223.064 615.507 318.777 588.662 391.199 596.335C411.786 615.164 448.837 614.186 484.586 602.101C525.097 595.18 561.766 590.985 564.663 590.898C570.481 590.722 568.572 578.376 561.035 578.383C544.47 578.399 496.249 586.317 487.252 589.004C478.255 591.692 475.797 582.231 483.967 579.442C492.158 576.646 513.538 576.36 560.232 570.265C564.664 569.687 565.389 561.377 560.778 560.483C540.594 556.568 491.4 574.426 481.577 568.577C477.226 565.986 478.247 565.877 478.388 562.501C484.652 557.678 521.961 557.008 560.493 550.025C562.5 547 563.5 542 559.971 539.457C545.571 535.897 490.476 553.798 479.169 548.526C477.561 546.569 476.836 545.154 476.466 543.25C475.602 538.8 553.722 531.668 558.743 528.56C561.27 523.142 555.788 518.291 555.788 518.291C555.788 518.291 483.826 527.467 433.501 532.679C402.897 531.888 390.223 563.37 372.081 561.684C353.939 559.999 300.647 563.477 256.608 574.375C246.057 576.986 234.266 582.871 230.067 584.967L230 585C225.861 587.066 213.5 593 204.698 600.822C188.515 615.204 167.878 642.267 167.878 642.267L154.037 671.949L140.664 700.626L110.21 730.879C109.363 713.35 118.135 686.646 118.135 686.646C118.135 686.646 185.87 541.389 264.229 502.679C342.588 463.97 413.42 477.843 487.705 473.638C586.974 468.018 641.453 436.063 641.453 436.063Z" fill="#31582E"/>
<path d="M208.326 458.186C231.034 407.742 236.708 332.772 203.701 322.957C125.621 299.741 135.065 183.404 164.683 165.094C194.302 146.785 291.97 233.914 252.216 302.561C236.916 328.981 291.333 363.821 214.019 498.124C185.774 547.188 141.978 600.471 115.904 680.373C112.101 701.185 110.639 712.41 109.889 731.185C139.516 560.018 308.693 504.66 315.547 364.787C321.744 238.333 205.701 128.01 217.306 25.0133C18.7197 145.212 71.4327 289.867 149.22 346.307C185.435 372.584 211.471 420.075 208.326 458.186Z" fill="#7BC147"/>
<path d="M531.89 290.152C448.85 350.762 359.21 290.219 330.413 402.406C382.702 349.929 429.63 377.834 496.997 336.689C464.758 382.456 362.151 359.56 336.733 429.444C372.175 381.729 534.417 497.535 531.89 290.152Z" fill="#C66868"/>
</svg>
